<mxfile host="65bd71144e">
    <diagram id="plP6wMqn1GceYuVyd_fu" name="Page-1">
        <mxGraphModel dx="545" dy="388" grid="1" gridSize="10" guides="1" tooltips="1" connect="1" arrows="1" fold="1" page="1" pageScale="1" pageWidth="850" pageHeight="1100" math="0" shadow="0">
            <root>
                <mxCell id="0"/>
                <mxCell id="1" parent="0"/>
                <mxCell id="2" value="Hito_Historico(&lt;u&gt;&lt;span&gt;&lt;font style=&quot;color: light-dark(rgb(235, 10, 32), rgb(237, 237, 237));&quot;&gt;Hito_ID&lt;/font&gt;&lt;/span&gt;,&lt;/u&gt; &lt;b style=&quot;font-style: italic; text-decoration-line: underline;&quot;&gt;Historias_ID,&lt;/b&gt;&amp;nbsp;Fecha, Descripcion, O&lt;span style=&quot;background-color: transparent;&quot;&gt;rden&lt;/span&gt;&lt;span style=&quot;background-color: transparent;&quot;&gt;)&lt;/span&gt;" style="text;html=1;align=left;verticalAlign=middle;resizable=0;points=[];autosize=1;strokeColor=none;fillColor=none;" vertex="1" parent="1">
                    <mxGeometry x="60" y="230" width="370" height="30" as="geometry"/>
                </mxCell>
                <mxCell id="3" value="Historias(&lt;u&gt;&lt;font style=&quot;color: light-dark(rgb(255, 0, 0), rgb(237, 237, 237));&quot;&gt;Historias_ID&lt;/font&gt;,&lt;/u&gt;&amp;nbsp;Nombre, Estado)" style="text;html=1;align=left;verticalAlign=middle;resizable=0;points=[];autosize=1;strokeColor=none;fillColor=none;" vertex="1" parent="1">
                    <mxGeometry x="60" y="310" width="240" height="30" as="geometry"/>
                </mxCell>
                <mxCell id="4" value="Imagenes(&lt;u&gt;&lt;font style=&quot;color: light-dark(rgb(255, 58, 18), rgb(237, 237, 237));&quot;&gt;Historias_ID&lt;/font&gt;,&lt;/u&gt; &lt;i style=&quot;text-decoration-line: underline; font-weight: bold;&quot;&gt;Historia_ID,&lt;/i&gt; &lt;i style=&quot;text-decoration-line: underline; font-weight: bold;&quot;&gt;PuntoHist_ID,&lt;/i&gt;&amp;nbsp;Estado, URL, Fecha_Subida)" style="text;html=1;align=left;verticalAlign=middle;resizable=0;points=[];autosize=1;strokeColor=none;fillColor=none;" vertex="1" parent="1">
                    <mxGeometry x="60" y="390" width="460" height="30" as="geometry"/>
                </mxCell>
                <mxCell id="5" value="Punto_Historico(&lt;u&gt;&lt;font style=&quot;color: rgb(255, 58, 18);&quot;&gt;PuntoHist_ID&lt;/font&gt;,&lt;/u&gt;&amp;nbsp;FechaCreacion, Longitud, Latitud, Nombre, Estado, HorarioServicio, CostoEntrada, Ciudad, Pais, Localidad)" style="text;html=1;align=left;verticalAlign=middle;resizable=0;points=[];autosize=1;strokeColor=none;fillColor=none;" vertex="1" parent="1">
                    <mxGeometry x="60" y="470" width="770" height="30" as="geometry"/>
                </mxCell>
                <mxCell id="12" value="" style="endArrow=classic;html=1;exitX=0.375;exitY=0.333;exitDx=0;exitDy=0;exitPerimeter=0;edgeStyle=orthogonalEdgeStyle;" edge="1" parent="1" source="3">
                    <mxGeometry width="50" height="50" relative="1" as="geometry">
                        <mxPoint x="270" y="410" as="sourcePoint"/>
                        <mxPoint x="220" y="250" as="targetPoint"/>
                    </mxGeometry>
                </mxCell>
                <mxCell id="13" value="" style="endArrow=classic;html=1;exitX=0.334;exitY=0.931;exitDx=0;exitDy=0;exitPerimeter=0;entryX=0.348;entryY=0.333;entryDx=0;entryDy=0;entryPerimeter=0;edgeStyle=orthogonalEdgeStyle;" edge="1" parent="1" source="3" target="4">
                    <mxGeometry width="50" height="50" relative="1" as="geometry">
                        <mxPoint x="270" y="410" as="sourcePoint"/>
                        <mxPoint x="320" y="360" as="targetPoint"/>
                    </mxGeometry>
                </mxCell>
                <mxCell id="14" value="" style="endArrow=classic;html=1;exitX=0.16;exitY=0.122;exitDx=0;exitDy=0;exitPerimeter=0;entryX=0.479;entryY=0.986;entryDx=0;entryDy=0;entryPerimeter=0;edgeStyle=orthogonalEdgeStyle;" edge="1" parent="1" source="5" target="4">
                    <mxGeometry width="50" height="50" relative="1" as="geometry">
                        <mxPoint x="150" y="348" as="sourcePoint"/>
                        <mxPoint x="230" y="410" as="targetPoint"/>
                    </mxGeometry>
                </mxCell>
            </root>
        </mxGraphModel>
    </diagram>
</mxfile>